<svg xmlns="http://www.w3.org/2000/svg" xmlns:xlink="http://www.w3.org/1999/xlink" width="32" zoomAndPan="magnify" viewBox="0 0 30 30.000001" height="32" preserveAspectRatio="xMidYMid meet" version="1.0"><defs><clipPath id="3041e0d445"><path d="M 0.484375 4.699219 L 29.515625 4.699219 L 29.515625 8 L 0.484375 8 Z M 0.484375 4.699219 " clip-rule="nonzero"/></clipPath><clipPath id="a70ab0d8b4"><path d="M 0.484375 13 L 29.515625 13 L 29.515625 16 L 0.484375 16 Z M 0.484375 13 " clip-rule="nonzero"/></clipPath><clipPath id="f90c4a7985"><path d="M 0.484375 21 L 29.515625 21 L 29.515625 24.296875 L 0.484375 24.296875 Z M 0.484375 21 " clip-rule="nonzero"/></clipPath></defs><g clip-path="url(#3041e0d445)"><path fill="current" d="M 1.976562 7.453125 L 28.023438 7.453125 C 28.796875 7.453125 29.421875 6.828125 29.421875 6.058594 C 29.421875 5.289062 28.796875 4.667969 28.023438 4.667969 L 1.976562 4.667969 C 1.203125 4.667969 0.578125 5.289062 0.578125 6.058594 C 0.578125 6.828125 1.203125 7.453125 1.976562 7.453125 Z M 1.976562 7.453125 " fill-opacity="1" fill-rule="nonzero"/></g><g clip-path="url(#a70ab0d8b4)"><path fill="current" d="M 28.023438 13.058594 L 1.976562 13.058594 C 1.203125 13.058594 0.578125 13.683594 0.578125 14.453125 C 0.578125 15.222656 1.203125 15.84375 1.976562 15.84375 L 28.023438 15.84375 C 28.796875 15.84375 29.421875 15.222656 29.421875 14.453125 C 29.421875 13.683594 28.796875 13.058594 28.023438 13.058594 Z M 28.023438 13.058594 " fill-opacity="1" fill-rule="nonzero"/></g><g clip-path="url(#f90c4a7985)"><path fill="current" d="M 28.023438 21.449219 L 1.976562 21.449219 C 1.203125 21.449219 0.578125 22.074219 0.578125 22.84375 C 0.578125 23.613281 1.203125 24.238281 1.976562 24.238281 L 28.023438 24.238281 C 28.796875 24.238281 29.421875 23.613281 29.421875 22.84375 C 29.421875 22.074219 28.796875 21.449219 28.023438 21.449219 Z M 28.023438 21.449219 " fill-opacity="1" fill-rule="nonzero"/></g></svg>